<svg width="31" height="31" viewBox="0 0 31 31" fill="none" xmlns="http://www.w3.org/2000/svg">
<path d="M16.9308 27.9778H8.54851C5.04285 27.9778 2.19922 25.1368 2.19922 21.6286V8.61199C2.19922 5.10632 5.04024 2.2627 8.54851 2.2627H18.7632C17.6241 2.37477 16.5216 2.61717 15.4634 2.99771C13.9595 3.53985 12.7371 4.35567 11.7961 5.44255C10.8552 6.52944 10.3834 7.83266 10.3834 9.35482C10.3834 10.9838 10.7822 12.3079 11.5798 13.3192C12.3748 14.3331 13.3365 15.0942 14.4599 15.5999C15.5807 16.1081 17.0299 16.6138 18.8049 17.122C20.254 17.5573 21.3852 17.9378 22.201 18.2636C23.0143 18.5894 23.6945 19.043 24.2393 19.6216C24.7814 20.2002 25.0525 20.9431 25.0525 21.8475C25.0525 23.1872 24.5729 24.2298 23.6137 24.97C22.6546 25.7128 21.3227 26.083 19.6207 26.083C17.7362 26.083 16.2975 25.765 15.3018 25.1316C14.3061 24.4982 13.8083 23.6381 13.8083 22.5512C13.8083 21.7563 14.0168 21.1385 14.4339 20.7033C14.8509 20.268 15.0594 20.0334 15.0594 19.9969C15.0594 19.8171 14.8326 19.5616 14.3791 19.2358C13.9256 18.91 13.4095 18.7458 12.8309 18.7458C11.817 18.7458 10.9934 19.0716 10.36 19.7232C9.72662 20.3749 9.40863 21.2272 9.40863 22.2776C9.40863 24.1255 10.3131 25.5565 12.1245 26.5678C13.4382 27.3106 15.0438 27.7745 16.9308 27.9778Z" fill="#FF553E"/>
<path d="M21.8029 0H8.43444C3.78455 0 0 3.78455 0 8.43444V21.8029C0 26.4554 3.78455 30.2373 8.43444 30.2373H21.8029C26.4554 30.2373 30.2399 26.4528 30.2399 21.8029V8.43444C30.2399 3.78455 26.4554 0 21.8029 0ZM29.5179 21.8029C29.5179 26.0618 26.0644 29.5153 21.8055 29.5153H8.43444C4.17552 29.5153 0.721984 26.0618 0.721984 21.8029V8.43444C0.721984 4.17552 4.17552 0.721984 8.43444 0.721984H21.8029C23.6196 0.721984 25.2877 1.35535 26.6066 2.41096C28.1079 3.86014 29.0983 6.28934 27.9775 8.72115C27.829 9.13036 27.6074 9.50569 27.3129 9.84453C26.716 10.5326 25.9263 10.8767 24.9489 10.8767C24.3676 10.8767 23.8541 10.7125 23.4006 10.3867C22.9471 10.0609 22.7203 9.80804 22.7203 9.62559C22.7203 9.5891 22.8663 9.44574 23.1556 9.19031C23.4449 8.93748 23.7082 8.63774 23.9454 8.29369C24.18 7.94964 24.2999 7.54304 24.2999 7.07127C24.2269 6.09386 23.7369 5.33278 22.8324 4.79064C21.9254 4.2485 20.8567 3.97482 19.6265 3.97482C18.2503 3.97482 17.0461 4.29281 16.014 4.92617C14.9818 5.55954 14.4657 6.43791 14.4657 7.56128C14.4657 8.57519 14.6821 9.38058 15.1174 9.97746C15.5526 10.5743 16.2042 11.0565 17.0722 11.4162C17.9401 11.7785 19.3163 12.2685 21.2008 12.8836C23.1191 13.4988 24.623 14.0696 25.7099 14.5961C26.6326 15.0418 27.3807 15.6256 27.9775 16.332C27.9854 16.3424 27.9932 16.3502 28.001 16.3606C29.0123 17.5778 29.5179 19.1339 29.5179 20.716V21.8029Z" fill="#FF553E"/>
</svg>
