<svg width="95" height="21" viewBox="0 0 95 21" fill="none" xmlns="http://www.w3.org/2000/svg">
<path d="M7.74815 20.3202C6.42364 20.3202 5.22614 20.0934 4.15564 19.6398C3.10329 19.1862 2.26867 18.5331 1.65178 17.6803C1.03488 16.8275 0.717363 15.8205 0.699219 14.6593H4.78161C4.83604 15.4395 5.1082 16.0564 5.59809 16.51C6.10612 16.9636 6.79559 17.1904 7.6665 17.1904C8.55555 17.1904 9.25409 16.9817 9.76212 16.5644C10.2702 16.129 10.5242 15.5665 10.5242 14.877C10.5242 14.3146 10.3518 13.8519 10.0071 13.489C9.66233 13.1262 9.22688 12.8449 8.7007 12.6453C8.19267 12.4276 7.48506 12.1917 6.57786 11.9377C5.34407 11.5748 4.33708 11.221 3.55689 10.8763C2.79485 10.5134 2.13259 9.97818 1.57013 9.27056C1.02581 8.5448 0.753651 7.58318 0.753651 6.38567C0.753651 5.26075 1.03488 4.28097 1.59734 3.44635C2.15981 2.61173 2.94907 1.97669 3.96513 1.54124C4.98119 1.08764 6.14241 0.86084 7.44877 0.86084C9.40832 0.86084 10.9959 1.34165 12.2116 2.30328C13.4453 3.24677 14.1257 4.57128 14.2528 6.27681H10.0615C10.0252 5.62363 9.74398 5.08838 9.21781 4.67107C8.70978 4.23562 8.02938 4.01789 7.17661 4.01789C6.43271 4.01789 5.83396 4.2084 5.38036 4.58942C4.9449 4.97045 4.72718 5.52384 4.72718 6.24959C4.72718 6.75762 4.89047 7.18401 5.21706 7.52874C5.5618 7.85533 5.97911 8.12749 6.469 8.34522C6.97703 8.5448 7.68464 8.78068 8.59184 9.05284C9.82563 9.41571 10.8326 9.77859 11.6128 10.1415C12.393 10.5044 13.0643 11.0487 13.6268 11.7744C14.1892 12.5002 14.4705 13.4527 14.4705 14.6321C14.4705 15.6482 14.2074 16.5916 13.6812 17.4626C13.155 18.3335 12.3839 19.032 11.3679 19.5582C10.3518 20.0662 9.14523 20.3202 7.74815 20.3202Z" fill="#332C5C"/>
<path d="M16.5219 12.5365C16.5219 11.0124 16.8213 9.66066 17.42 8.4813C18.0369 7.30194 18.8625 6.39475 19.8967 5.75971C20.949 5.12467 22.1193 4.80715 23.4075 4.80715C24.5324 4.80715 25.5122 5.03395 26.3468 5.48755C27.1996 5.94115 27.88 6.51268 28.388 7.20215V5.05209H32.2255V20.1297H28.388V17.9252C27.8981 18.6328 27.2177 19.2225 26.3468 19.6943C25.4941 20.1479 24.5052 20.3747 23.3803 20.3747C22.1102 20.3747 20.949 20.0481 19.8967 19.3949C18.8625 18.7417 18.0369 17.8254 17.42 16.6461C16.8213 15.4486 16.5219 14.0787 16.5219 12.5365ZM28.388 12.5909C28.388 11.6656 28.2066 10.8763 27.8437 10.2231C27.4808 9.55179 26.9909 9.04376 26.3741 8.69903C25.7572 8.33615 25.0949 8.15471 24.3873 8.15471C23.6797 8.15471 23.0265 8.32708 22.4277 8.67181C21.829 9.01655 21.3391 9.52458 20.9581 10.1959C20.5952 10.8491 20.4138 11.6293 20.4138 12.5365C20.4138 13.4437 20.5952 14.242 20.9581 14.9315C21.3391 15.6028 21.829 16.1199 22.4277 16.4828C23.0446 16.8457 23.6978 17.0271 24.3873 17.0271C25.0949 17.0271 25.7572 16.8547 26.3741 16.51C26.9909 16.1471 27.4808 15.6391 27.8437 14.9859C28.2066 14.3146 28.388 13.5162 28.388 12.5909Z" fill="#332C5C"/>
<path d="M34.6949 12.5365C34.6949 11.0124 34.9943 9.66066 35.593 8.4813C36.2099 7.30194 37.0355 6.39475 38.0697 5.75971C39.122 5.12467 40.2923 4.80715 41.5805 4.80715C42.7055 4.80715 43.6852 5.03395 44.5199 5.48755C45.3726 5.94115 46.053 6.51268 46.561 7.20215V5.05209H50.3985V20.1297H46.561V17.9252C46.0712 18.6328 45.3908 19.2225 44.5199 19.6943C43.6671 20.1479 42.6782 20.3747 41.5533 20.3747C40.2832 20.3747 39.122 20.0481 38.0697 19.3949C37.0355 18.7417 36.2099 17.8254 35.593 16.6461C34.9943 15.4486 34.6949 14.0787 34.6949 12.5365ZM46.561 12.5909C46.561 11.6656 46.3796 10.8763 46.0167 10.2231C45.6538 9.55179 45.164 9.04376 44.5471 8.69903C43.9302 8.33615 43.2679 8.15471 42.5603 8.15471C41.8527 8.15471 41.1995 8.32708 40.6008 8.67181C40.002 9.01655 39.5121 9.52458 39.1311 10.1959C38.7682 10.8491 38.5868 11.6293 38.5868 12.5365C38.5868 13.4437 38.7682 14.242 39.1311 14.9315C39.5121 15.6028 40.002 16.1199 40.6008 16.4828C41.2177 16.8457 41.8708 17.0271 42.5603 17.0271C43.2679 17.0271 43.9302 16.8547 44.5471 16.51C45.164 16.1471 45.6538 15.6391 46.0167 14.9859C46.3796 14.3146 46.561 13.5162 46.561 12.5909Z" fill="#332C5C"/>
<path d="M60.4067 20.3202C59.0822 20.3202 57.8847 20.0934 56.8142 19.6398C55.7619 19.1862 54.9272 18.5331 54.3104 17.6803C53.6935 16.8275 53.3759 15.8205 53.3578 14.6593H57.4402C57.4946 15.4395 57.7668 16.0564 58.2567 16.51C58.7647 16.9636 59.4542 17.1904 60.3251 17.1904C61.2141 17.1904 61.9127 16.9817 62.4207 16.5644C62.9287 16.129 63.1828 15.5665 63.1828 14.877C63.1828 14.3146 63.0104 13.8519 62.6656 13.489C62.3209 13.1262 61.8855 12.8449 61.3593 12.6453C60.8513 12.4276 60.1436 12.1917 59.2364 11.9377C58.0027 11.5748 56.9957 11.221 56.2155 10.8763C55.4534 10.5134 54.7912 9.97818 54.2287 9.27056C53.6844 8.5448 53.4122 7.58318 53.4122 6.38567C53.4122 5.26075 53.6935 4.28097 54.2559 3.44635C54.8184 2.61173 55.6077 1.97669 56.6237 1.54124C57.6398 1.08764 58.801 0.86084 60.1073 0.86084C62.0669 0.86084 63.6545 1.34165 64.8701 2.30328C66.1039 3.24677 66.7843 4.57128 66.9113 6.27681H62.7201C62.6838 5.62363 62.4026 5.08838 61.8764 4.67107C61.3684 4.23562 60.688 4.01789 59.8352 4.01789C59.0913 4.01789 58.4925 4.2084 58.0389 4.58942C57.6035 4.97045 57.3858 5.52384 57.3858 6.24959C57.3858 6.75762 57.5491 7.18401 57.8756 7.52874C58.2204 7.85533 58.6377 8.12749 59.1276 8.34522C59.6356 8.5448 60.3432 8.78068 61.2504 9.05284C62.4842 9.41571 63.4912 9.77859 64.2714 10.1415C65.0516 10.5044 65.7229 11.0487 66.2854 11.7744C66.8478 12.5002 67.1291 13.4527 67.1291 14.6321C67.1291 15.6482 66.866 16.5916 66.3398 17.4626C65.8136 18.3335 65.0425 19.032 64.0264 19.5582C63.0104 20.0662 61.8038 20.3202 60.4067 20.3202Z" fill="#332C5C"/>
<path d="M74.5964 8.18193V15.4758C74.5964 15.9838 74.7144 16.3558 74.9502 16.5916C75.2043 16.8094 75.6216 16.9182 76.2022 16.9182H77.9712V20.1297H75.5762C72.3647 20.1297 70.759 18.5693 70.759 15.4486V8.18193H68.9627V5.05209H70.759V1.32351H74.5964V5.05209H77.9712V8.18193H74.5964Z" fill="#332C5C"/>
<path d="M87.1347 20.3747C85.6832 20.3747 84.3768 20.0571 83.2156 19.4221C82.0544 18.7689 81.1381 17.8527 80.4668 16.6733C79.8136 15.4939 79.487 14.1331 79.487 12.5909C79.487 11.0487 79.8227 9.68787 80.494 8.50852C81.1835 7.32916 82.1179 6.42196 83.2972 5.78692C84.4766 5.13374 85.792 4.80715 87.2435 4.80715C88.6951 4.80715 90.0105 5.13374 91.1899 5.78692C92.3692 6.42196 93.2946 7.32916 93.9659 8.50852C94.6554 9.68787 95.0001 11.0487 95.0001 12.5909C95.0001 14.1331 94.6463 15.4939 93.9387 16.6733C93.2492 17.8527 92.3057 18.7689 91.1082 19.4221C89.9289 20.0571 88.6043 20.3747 87.1347 20.3747ZM87.1347 17.0543C87.8242 17.0543 88.4683 16.891 89.067 16.5644C89.6839 16.2197 90.1738 15.7117 90.5367 15.0403C90.8996 14.369 91.081 13.5525 91.081 12.5909C91.081 11.1575 90.7 10.0598 89.9379 9.29778C89.194 8.51759 88.2778 8.12749 87.1891 8.12749C86.1005 8.12749 85.1842 8.51759 84.4403 9.29778C83.7146 10.0598 83.3517 11.1575 83.3517 12.5909C83.3517 14.0243 83.7055 15.1311 84.4131 15.9113C85.1388 16.6733 86.046 17.0543 87.1347 17.0543Z" fill="#332C5C"/>
</svg>
