<svg width="84" height="17" viewBox="0 0 84 17" fill="none" xmlns="http://www.w3.org/2000/svg">
<path d="M0.347767 9.377C1.04532 7.50663 3.66114 6.06489 4.88186 5.57782C10.4623 3.23991 19.4433 2.07083 23.1926 2.65537C26.942 3.2399 22.8438 4.40879 19.2689 5.57777C15.6939 6.74675 18.3097 7.33124 21.5359 6.74675C24.7621 6.16226 31.4761 5.57777 37.2309 5.28552C42.9857 4.99328 37.1437 4.40879 31.4761 4.40879C25.8084 4.40879 25.8956 3.23986 27.9011 2.65537C29.9066 2.07088 34.4407 -0.267082 39.7595 0.025163C45.0783 0.317408 57.6343 0.901898 63.0403 2.94761C68.4464 4.99333 79.6072 10.546 82.3102 12.2994C85.0132 14.0529 84.6645 19.0211 79.8688 16.0986C75.0731 13.1762 65.133 7.91578 43.3345 7.03904C21.5359 6.16231 4.96904 11.1305 3.22516 13.1762C1.48128 15.2219 0.260561 15.2219 0.958113 13.4684C1.65567 11.715 1.83007 11.4227 1.13251 12.0072C0.434961 12.5917 -0.524174 11.715 0.347767 9.377Z" fill="#FF733B" fill-opacity="0.4"/>
</svg>
