<svg width="78" height="16" viewBox="0 0 78 16" fill="none" xmlns="http://www.w3.org/2000/svg">
<path d="M0.322927 8.82541C0.970654 7.06506 3.39963 5.70813 4.53316 5.24971C9.71499 3.04932 18.0545 1.94902 21.536 2.49917C25.0175 3.04932 21.2121 4.14945 17.8925 5.24966C14.5729 6.34988 17.0019 6.89999 19.9976 6.34988C22.9934 5.79977 29.2278 5.24966 34.5715 4.97461C39.9153 4.69956 34.4906 4.14945 29.2278 4.14945C23.965 4.14945 24.0459 3.04928 25.9082 2.49917C27.7704 1.94906 31.9806 -0.251371 36.9195 0.0236828C41.8585 0.298737 53.5176 0.848845 58.5374 2.77422C63.5573 4.6996 73.921 9.92563 76.4309 11.576C78.9409 13.2263 78.617 17.9022 74.1639 15.1517C69.7107 12.4011 60.4806 7.45014 40.2391 6.62498C19.9976 5.79982 4.61411 10.4757 2.99479 12.4011C1.37547 14.3265 0.241949 14.3265 0.889677 12.6762C1.5374 11.0258 1.69935 10.7508 1.05162 11.3009C0.403893 11.851 -0.486733 11.0258 0.322927 8.82541Z" fill="#FF733B" fill-opacity="0.4"/>
</svg>
