<svg width="116" height="23" viewBox="0 0 116 23" fill="none" xmlns="http://www.w3.org/2000/svg">
<path d="M0.48025 12.6865C1.44354 10.156 5.05586 8.20544 6.74162 7.54646C14.4479 4.3834 26.8502 2.80171 32.0279 3.59256C37.2056 4.3834 31.5462 5.96483 26.6094 7.54639C21.6726 9.12795 25.2849 9.91873 29.7401 9.12795C34.1953 8.33717 43.4669 7.54639 51.4141 7.151C59.3612 6.75561 51.2936 5.96483 43.4669 5.96483C35.6402 5.96483 35.7606 4.38334 38.5301 3.59256C41.2995 2.80177 47.5609 -0.361346 54.906 0.0340441C62.251 0.429434 79.5902 1.22021 87.0557 3.98795C94.5212 6.75568 109.934 14.2681 113.666 16.6404C117.399 19.0128 116.918 25.7344 110.295 21.7805C103.672 17.8266 89.9455 10.7096 59.8428 9.52341C29.7401 8.33724 6.86201 15.0589 4.45379 17.8266C2.04557 20.5943 0.359822 20.5943 1.32311 18.222C2.2864 15.8496 2.52724 15.4543 1.56395 16.245C0.600661 17.0358 -0.723859 15.8496 0.48025 12.6865Z" fill="#FF733B" fill-opacity="0.5"/>
</svg>
