<svg width="137" height="27" viewBox="0 0 137 27" fill="none" xmlns="http://www.w3.org/2000/svg">
<path d="M0.567192 14.8929C1.70487 11.9223 5.97115 9.63247 7.96208 8.85888C17.0635 5.14573 31.711 3.28896 37.826 4.21735C43.9411 5.14573 37.2572 7.00219 31.4266 8.85881C25.596 10.7154 29.8623 11.6437 35.1241 10.7154C40.3858 9.78711 51.3359 8.85881 60.7218 8.39465C70.1076 7.9305 60.5796 7.00219 51.3359 7.00219C42.0923 7.00219 42.2345 5.14565 45.5054 4.21735C48.7762 3.28904 56.1711 -0.424189 64.8458 0.0399648C73.5206 0.504118 93.9988 1.43243 102.816 4.6815C111.633 7.93058 129.836 16.7495 134.244 19.5344C138.653 22.3193 138.084 30.2099 130.262 25.5684C122.441 20.9269 106.229 12.5721 70.6764 11.1797C35.1241 9.78719 8.10427 17.6778 5.26008 20.9269C2.41589 24.176 0.424962 24.176 1.56264 21.391C2.70031 18.6061 2.98475 18.142 1.84708 19.0703C0.709401 19.9986 -0.854903 18.6061 0.567192 14.8929Z" fill="#FF733B" fill-opacity="0.4"/>
</svg>
