<svg width="70" height="14" viewBox="0 0 70 14" fill="none" xmlns="http://www.w3.org/2000/svg">
<path d="M0.289806 7.72223C0.8711 6.18193 3.05095 4.99462 4.06822 4.5935C8.71858 2.66816 16.2027 1.70539 19.3272 2.18677C22.4516 2.66816 19.0365 3.63077 16.0574 4.59346C13.0783 5.55614 15.2581 6.03749 17.9466 5.55614C20.6351 5.0748 26.23 4.59346 31.0257 4.35278C35.8214 4.11211 30.9531 3.63077 26.23 3.63077C21.507 3.63077 21.5797 2.66812 23.2509 2.18677C24.9221 1.70543 28.7005 -0.21995 33.1329 0.0207225C37.5653 0.261395 48.0286 0.742739 52.5336 2.42744C57.0386 4.11215 66.3393 8.68492 68.5919 10.129C70.8444 11.573 70.5537 15.6644 66.5573 13.2577C62.5609 10.851 54.2775 6.51887 36.112 5.79686C17.9466 5.07484 4.14087 9.16627 2.68763 10.851C1.2344 12.5357 0.217134 12.5357 0.798428 11.0916C1.37972 9.64761 1.52506 9.40694 0.943762 9.88828C0.362468 10.3696 -0.436812 9.64761 0.289806 7.72223Z" fill="#FF733B" fill-opacity="0.5"/>
</svg>
