<svg width="117" height="23" viewBox="0 0 117 23" fill="none" xmlns="http://www.w3.org/2000/svg">
<path opacity="0.5" d="M0.48439 12.6865C1.45598 10.156 5.09945 8.20544 6.79974 7.54646C14.5725 4.3834 27.0817 2.80171 32.304 3.59256C37.5263 4.3834 31.8182 5.96483 26.8388 7.54639C21.8594 9.12795 25.5029 9.91873 29.9965 9.12795C34.4901 8.33717 43.8416 7.54639 51.8573 7.151C59.8729 6.75561 51.7358 5.96483 43.8416 5.96483C35.9475 5.96483 36.0689 4.38334 38.8622 3.59256C41.6556 2.80177 47.9709 -0.361346 55.3793 0.0340441C62.7877 0.429434 80.2763 1.22021 87.8062 3.98795C95.336 6.75568 110.881 14.2681 114.646 16.6404C118.411 19.0128 117.925 25.7344 111.246 21.7805C104.566 17.8266 90.7209 10.7096 60.3587 9.52341C29.9965 8.33724 6.92117 15.0589 4.49219 17.8266C2.06321 20.5943 0.362924 20.5943 1.33452 18.222C2.30611 15.8496 2.54902 15.4543 1.57743 16.245C0.605839 17.0358 -0.730099 15.8496 0.48439 12.6865Z" fill="#FF733B"/>
</svg>
